# xmcd
#
# Track frame offsets:
#	187
#	13020
#	24790
#	37720
#	50632
#	63277
#	73112
#	84920
#	97207
#	111417
#	124345
#	139557
#	150940
#	162245
#	178832
#	192210
#	209010
#	221235
#	235847
#
# Disc length: 3321 seconds
#
# Revision: 1
# Processed by: cddbd v1.5PL3 Copyright (c) Steve Scherf et al.
# Submitted via: CDex 1.50Beta5
#
DISCID=090cf713
DTITLE=Various Artist - グループ・サウンズ〜グッディーズ
DYEAR=1900
DGENRE=Pop
TTITLE0=ブルー・シャトウ
TTITLE1=夕陽が泣いている
TTITLE2=ガール・フレンド
TTITLE3=長い髪の少女
TTITLE4=シーサイド・バウンド
TTITLE5=バラ色の雲
TTITLE6=バン!バン!バン!
TTITLE7=青い瞳
TTITLE8=銀河のロマンス
TTITLE9=初恋の丘
TTITLE10=白いブランコ
TTITLE11=本牧ブルース
TTITLE12=遠い渚
TTITLE13=ケメコの唄
TTITLE14=好きだから
TTITLE15=青い鳥
TTITLE16=銀色のグラス
TTITLE17=今日を生きよう
TTITLE18=愛するアニタ
EXTD=
EXTT0=
EXTT1=
EXTT2=
EXTT3=
EXTT4=
EXTT5=
EXTT6=
EXTT7=
EXTT8=
EXTT9=
EXTT10=
EXTT11=
EXTT12=
EXTT13=
EXTT14=
EXTT15=
EXTT16=
EXTT17=
EXTT18=
PLAYORDER=
